<?xml version="1.0" encoding="utf-8"?>
<!-- Generator: Adobe Illustrator 19.0.0, SVG Export Plug-In . SVG Version: 6.00 Build 0)  -->
<svg version="1.1" id="图层_1" xmlns="http://www.w3.org/2000/svg" xmlns:xlink="http://www.w3.org/1999/xlink" x="0px" y="0px"
	 viewBox="0 0 32 32" style="enable-background:new 0 0 32 32;" xml:space="preserve">
<style type="text/css">
	.st0{fill-rule:evenodd;clip-rule:evenodd;}
</style>
<g id="XMLID_9_">
	<path id="XMLID_36_" class="st0" d="M1,29.9h30c0.6,0,1,0.4,1,1s-0.4,1-1,1H1c-0.6,0-1-0.4-1-1S0.4,29.9,1,29.9z"/>
	<g id="XMLID_1_">
		<path id="XMLID_33_" d="M16,1.9c1.1,0,2,0.9,2,2v26H4v-26c0-1.1,0.9-2,2-2H16 M16-0.1H6c-2.2,0-4,1.8-4,4v28h18v-28
			C20,1.7,18.2-0.1,16-0.1L16-0.1z"/>
	</g>
	<path id="XMLID_20_" class="st0" d="M8,9.9h6c0.6,0,1,0.4,1,1c0,0.6-0.4,1-1,1H8c-0.6,0-1-0.4-1-1C7,10.4,7.4,9.9,8,9.9z"/>
	<path id="XMLID_18_" class="st0" d="M8,14.9h6c0.6,0,1,0.4,1,1s-0.4,1-1,1H8c-0.6,0-1-0.4-1-1S7.4,14.9,8,14.9z"/>
	<path id="XMLID_16_" class="st0" d="M8,19.9h6c0.6,0,1,0.4,1,1c0,0.6-0.4,1-1,1H8c-0.6,0-1-0.4-1-1C7,20.4,7.4,19.9,8,19.9z"/>
	<g id="XMLID_3_">
		<path id="XMLID_29_" d="M26,11.9c1.1,0,2,0.9,2,2v16h-8v-18H26 M26,9.9h-8v22h12v-18C30,11.7,28.2,9.9,26,9.9L26,9.9z"/>
	</g>
</g>
</svg>
